<svg width="18" height="18" viewBox="0 0 18 18" fill="none" xmlns="http://www.w3.org/2000/svg">
<path d="M7.5 9.75C7.91421 9.75 8.25 10.0858 8.25 10.5V15C8.25 15.4142 7.91421 15.75 7.5 15.75H3C2.58579 15.75 2.25 15.4142 2.25 15V10.5C2.25 10.0858 2.58579 9.75 3 9.75H7.5ZM14.2422 12.6016C14.208 12.2583 14.0566 11.9355 13.8105 11.6895C13.5292 11.4081 13.1478 11.25 12.75 11.25C12.3522 11.25 11.9708 11.4081 11.6895 11.6895C11.4081 11.9708 11.25 12.3522 11.25 12.75C11.25 13.1478 11.4081 13.5292 11.6895 13.8105C11.9708 14.0919 12.3522 14.25 12.75 14.25L12.8984 14.2422C13.2417 14.208 13.5645 14.0566 13.8105 13.8105C14.0919 13.5292 14.25 13.1478 14.25 12.75L14.2422 12.6016ZM3.75 14.25H6.75V11.25H3.75V14.25ZM6.74316 5.10254C6.7287 4.95612 6.69225 4.8122 6.63574 4.67578C6.56036 4.49387 6.44979 4.32869 6.31055 4.18945C6.17131 4.05021 6.00613 3.93964 5.82422 3.86426C5.64223 3.78888 5.44698 3.75 5.25 3.75C5.05302 3.75 4.85777 3.78888 4.67578 3.86426C4.49387 3.93964 4.32869 4.05021 4.18945 4.18945C4.05021 4.32869 3.93964 4.49387 3.86426 4.67578C3.78888 4.85777 3.75 5.05302 3.75 5.25L3.75684 5.39746C3.7713 5.54388 3.80775 5.68779 3.86426 5.82422C3.93964 6.00613 4.05021 6.17131 4.18945 6.31055C4.32869 6.44979 4.49387 6.56036 4.67578 6.63574C4.85777 6.71112 5.05302 6.75 5.25 6.75C5.44698 6.75 5.64223 6.71112 5.82422 6.63574C6.00613 6.56036 6.17131 6.44979 6.31055 6.31055C6.44979 6.17131 6.56036 6.00613 6.63574 5.82422C6.71112 5.64223 6.75 5.44698 6.75 5.25L6.74316 5.10254ZM15.7354 13.0469C15.6671 13.7335 15.3633 14.3789 14.8711 14.8711C14.3789 15.3633 13.7335 15.6671 13.0469 15.7354L12.75 15.75C11.9544 15.75 11.1915 15.4337 10.6289 14.8711C10.0663 14.3085 9.75 13.5456 9.75 12.75C9.75 11.9544 10.0663 11.1915 10.6289 10.6289C11.1915 10.0663 11.9544 9.75 12.75 9.75C13.5456 9.75 14.3085 10.0663 14.8711 10.6289C15.4337 11.1915 15.75 11.9544 15.75 12.75L15.7354 13.0469ZM8.23535 5.54395C8.20649 5.83708 8.13461 6.12532 8.02148 6.39844C7.87072 6.76226 7.64957 7.09262 7.37109 7.37109C7.09262 7.64957 6.76226 7.87072 6.39844 8.02148C6.03446 8.17225 5.64397 8.25 5.25 8.25C4.85603 8.25 4.46554 8.17225 4.10156 8.02148C3.73774 7.87072 3.40738 7.64957 3.12891 7.37109C2.85043 7.09262 2.62928 6.76226 2.47852 6.39844C2.36539 6.12532 2.29351 5.83708 2.26465 5.54395L2.25 5.25C2.25 4.85603 2.32775 4.46554 2.47852 4.10156C2.62928 3.73774 2.85043 3.40738 3.12891 3.12891C3.40738 2.85043 3.73774 2.62928 4.10156 2.47852C4.46554 2.32775 4.85603 2.25 5.25 2.25C5.64397 2.25 6.03446 2.32775 6.39844 2.47852C6.76226 2.62928 7.09262 2.85043 7.37109 3.12891C7.64957 3.40738 7.87072 3.73774 8.02148 4.10156C8.17225 4.46554 8.25 4.85603 8.25 5.25L8.23535 5.54395Z" fill="#435879"/>
<path d="M15.75 8.5C15.3358 8.5 15 8.16421 15 7.75C15 7.33579 15.3358 7 15.75 7C16.1642 7 16.5 7.33579 16.5 7.75C16.5 8.16421 16.1642 8.5 15.75 8.5Z" fill="#435879"/>
<path d="M9.75 2.5C9.33579 2.5 9 2.16421 9 1.75C9 1.33579 9.33579 1 9.75 1C10.1642 1 10.5 1.33579 10.5 1.75C10.5 2.16421 10.1642 2.5 9.75 2.5Z" fill="#435879"/>
<path d="M12.5105 2.38496C12.635 1.87168 13.365 1.87168 13.4895 2.38496L13.8319 3.79729C13.8764 3.98055 14.0195 4.12363 14.2027 4.16807L15.615 4.51054C16.1283 4.635 16.1283 5.365 15.615 5.48946L14.2027 5.83193C14.0195 5.87637 13.8764 6.01945 13.8319 6.20271L13.4895 7.61504C13.365 8.12832 12.635 8.12832 12.5105 7.61504L12.1681 6.20271C12.1236 6.01945 11.9805 5.87637 11.7973 5.83193L10.385 5.48946C9.87168 5.365 9.87168 4.635 10.385 4.51054L11.7973 4.16807C11.9805 4.12363 12.1236 3.98055 12.1681 3.79729L12.5105 2.38496Z" fill="#435879"/>
<path fill-rule="evenodd" clip-rule="evenodd" d="M13 2.93109L12.7554 3.93972C12.6577 4.34288 12.3429 4.65766 11.9397 4.75542L10.9311 5L11.9397 5.24458C12.3429 5.34234 12.6577 5.65712 12.7554 6.06029L13 7.06891L13.2446 6.06029C13.3423 5.65712 13.6571 5.34234 14.0603 5.24458L15.0689 5L14.0603 4.75542C13.6571 4.65766 13.3423 4.34288 13.2446 3.93972L13 2.93109ZM13.4895 2.38496C13.365 1.87168 12.635 1.87168 12.5105 2.38496L12.1681 3.79729C12.1236 3.98055 11.9805 4.12363 11.7973 4.16807L10.385 4.51054C9.87168 4.635 9.87168 5.365 10.385 5.48946L11.7973 5.83193C11.9805 5.87637 12.1236 6.01945 12.1681 6.20271L12.5105 7.61504C12.635 8.12832 13.365 8.12832 13.4895 7.61504L13.8319 6.20271C13.8764 6.01945 14.0195 5.87637 14.2027 5.83193L15.615 5.48946C16.1283 5.365 16.1283 4.635 15.615 4.51054L14.2027 4.16807C14.0195 4.12363 13.8764 3.98055 13.8319 3.79729L13.4895 2.38496Z" fill="#435879"/>
</svg>
