<svg width="16" height="16" viewBox="0 0 16 16" fill="none" xmlns="http://www.w3.org/2000/svg">
<path d="M7 8C7 8.13261 7.05268 8.25979 7.14645 8.35355C7.24021 8.44732 7.36739 8.5 7.5 8.5C7.63261 8.5 7.75979 8.44732 7.85355 8.35355C7.94732 8.25979 8 8.13261 8 8C8 7.86739 7.94732 7.74021 7.85355 7.64645C7.75979 7.55268 7.63261 7.5 7.5 7.5C7.36739 7.5 7.24021 7.55268 7.14645 7.64645C7.05268 7.74021 7 7.86739 7 8Z" fill="#91A8C3"/>
<path d="M7 11.5C7 11.6326 7.05268 11.7598 7.14645 11.8536C7.24021 11.9473 7.36739 12 7.5 12C7.63261 12 7.75979 11.9473 7.85355 11.8536C7.94732 11.7598 8 11.6326 8 11.5C8 11.3674 7.94732 11.2402 7.85355 11.1464C7.75979 11.0527 7.63261 11 7.5 11C7.36739 11 7.24021 11.0527 7.14645 11.1464C7.05268 11.2402 7 11.3674 7 11.5Z" fill="#91A8C3"/>
<path d="M7 4.5C7 4.63261 7.05268 4.75979 7.14645 4.85355C7.24021 4.94732 7.36739 5 7.5 5C7.63261 5 7.75979 4.94732 7.85355 4.85355C7.94732 4.75979 8 4.63261 8 4.5C8 4.36739 7.94732 4.24021 7.85355 4.14645C7.75979 4.05268 7.63261 4 7.5 4C7.36739 4 7.24021 4.05268 7.14645 4.14645C7.05268 4.24021 7 4.36739 7 4.5Z" fill="#91A8C3"/>
<path d="M6.5 11.5C6.5 11.2348 6.60543 10.9805 6.79297 10.793C6.98051 10.6054 7.23478 10.5 7.5 10.5C7.76522 10.5 8.01949 10.6054 8.20703 10.793C8.39457 10.9805 8.5 11.2348 8.5 11.5C8.5 11.7652 8.39457 12.0195 8.20703 12.207C8.01949 12.3946 7.76522 12.5 7.5 12.5C7.23478 12.5 6.98051 12.3946 6.79297 12.207C6.60543 12.0195 6.5 11.7652 6.5 11.5ZM6.5 8C6.5 7.73478 6.60543 7.4805 6.79297 7.29297C6.9805 7.10543 7.23478 7 7.5 7C7.76522 7 8.0195 7.10543 8.20703 7.29297C8.39457 7.4805 8.5 7.73478 8.5 8C8.5 8.26522 8.39457 8.5195 8.20703 8.70703C8.0195 8.89457 7.76522 9 7.5 9C7.23478 9 6.9805 8.89457 6.79297 8.70703C6.60543 8.5195 6.5 8.26522 6.5 8ZM6.5 4.5C6.5 4.23478 6.60543 3.9805 6.79297 3.79297C6.9805 3.60543 7.23478 3.5 7.5 3.5L7.59863 3.50488C7.82763 3.52757 8.04289 3.62883 8.20703 3.79297C8.39457 3.9805 8.5 4.23478 8.5 4.5C8.5 4.76522 8.39457 5.0195 8.20703 5.20703C8.0195 5.39457 7.76522 5.5 7.5 5.5C7.23478 5.5 6.9805 5.39457 6.79297 5.20703C6.60543 5.0195 6.5 4.76522 6.5 4.5Z" fill="#91A8C3"/>
</svg>
