<svg width="16" height="16" viewBox="0 0 16 16" fill="none" xmlns="http://www.w3.org/2000/svg">
<path d="M13.5462 2.87932L12.4737 1.80688C12.1351 1.46822 11.6553 1.27067 11.2038 1.27067C10.7522 1.27067 10.2724 1.46822 9.93379 1.80688L3.283 8.45767L2.94434 11.675C2.8879 12.0701 3.19834 12.4087 3.59344 12.4087C3.62166 12.4087 3.64988 12.4087 3.67811 12.4087L6.89538 12.0701L13.5462 5.41929C14.2517 4.71374 14.2517 3.58486 13.5462 2.87932ZM6.2745 10.7719L4.38365 10.9694L4.5812 9.07855L7.78894 5.84262L8.66381 4.96774L10.3853 6.68927L9.51046 7.56415L6.2745 10.7719ZM12.5866 4.45974L11.3449 5.72973L9.62335 4.00819L10.8933 2.76643C11.0062 2.65354 11.1473 2.62532 11.2038 2.62532C11.2602 2.62532 11.4013 2.65354 11.5142 2.76643L12.5866 3.83886C12.756 4.00819 12.756 4.29041 12.5866 4.45974Z" fill="#D9E1EA"/>
<path d="M13.1017 14.9911C12.991 15.4474 12.3421 15.4474 12.2315 14.9911L11.9271 13.7357C11.8876 13.5728 11.7604 13.4456 11.5975 13.4061L10.3421 13.1017C9.88586 12.9911 9.88586 12.3422 10.3421 12.2316L11.5975 11.9272C11.7604 11.8877 11.8876 11.7605 11.9271 11.5976L12.2315 10.3422C12.3421 9.88592 12.991 9.88592 13.1017 10.3422L13.4061 11.5976C13.4456 11.7605 13.5728 11.8877 13.7357 11.9272L14.9911 12.2316C15.4473 12.3422 15.4473 12.9911 14.9911 13.1017L13.7357 13.4061C13.5728 13.4456 13.4456 13.5728 13.4061 13.7357L13.1017 14.9911Z" fill="#D9E1EA"/>
<path fill-rule="evenodd" clip-rule="evenodd" d="M12.6666 14.5057L12.884 13.6091C12.9709 13.2508 13.2507 12.9709 13.6091 12.884L14.5056 12.6666L13.6091 12.4492C13.2507 12.3623 12.9709 12.0825 12.884 11.7242L12.6666 10.8276L12.4492 11.7242C12.3623 12.0825 12.0825 12.3623 11.7241 12.4492L10.8276 12.6666L11.7241 12.884C12.0825 12.9709 12.3623 13.2508 12.4492 13.6091L12.6666 14.5057ZM12.2315 14.9911C12.3421 15.4474 12.991 15.4474 13.1017 14.9911L13.4061 13.7357C13.4456 13.5728 13.5728 13.4456 13.7357 13.4061L14.9911 13.1017C15.4473 12.9911 15.4473 12.3422 14.9911 12.2316L13.7357 11.9272C13.5728 11.8877 13.4456 11.7605 13.4061 11.5976L13.1017 10.3422C12.991 9.88592 12.3421 9.88592 12.2315 10.3422L11.9271 11.5976C11.8876 11.7605 11.7604 11.8877 11.5975 11.9272L10.3421 12.2316C9.88586 12.3422 9.88586 12.9911 10.3421 13.1017L11.5975 13.4061C11.7604 13.4456 11.8876 13.5728 11.9271 13.7357L12.2315 14.9911Z" fill="#D9E1EA"/>
<path d="M2.9929 4.41C2.90992 4.75219 2.42325 4.75219 2.34028 4.41L2.11196 3.46845C2.08234 3.34628 1.98695 3.25089 1.86478 3.22127L0.923228 2.99296C0.58104 2.90998 0.581039 2.42331 0.923227 2.34034L1.86478 2.11202C1.98695 2.0824 2.08234 1.98701 2.11196 1.86484L2.34028 0.923288C2.42325 0.5811 2.90992 0.581099 2.9929 0.923287L3.22121 1.86484C3.25083 1.98701 3.34622 2.0824 3.46839 2.11202L4.40995 2.34034C4.75213 2.42331 4.75213 2.90998 4.40995 2.99296L3.46839 3.22127C3.34622 3.25089 3.25083 3.34628 3.22121 3.46845L2.9929 4.41Z" fill="#D9E1EA"/>
<path fill-rule="evenodd" clip-rule="evenodd" d="M2.66659 4.04592L2.82964 3.3735C2.89481 3.10473 3.10467 2.89487 3.37344 2.8297L4.04586 2.66665L3.37344 2.50359C3.10467 2.43842 2.89481 2.22857 2.82964 1.95979L2.66659 1.28738L2.50354 1.95979C2.43836 2.22857 2.22851 2.43842 1.95973 2.50359L1.28732 2.66665L1.95973 2.8297C2.22851 2.89487 2.43836 3.10473 2.50354 3.3735L2.66659 4.04592ZM2.34028 4.41C2.42325 4.75219 2.90992 4.75219 2.9929 4.41L3.22121 3.46845C3.25083 3.34628 3.34622 3.25089 3.46839 3.22127L4.40995 2.99296C4.75213 2.90998 4.75213 2.42331 4.40995 2.34034L3.46839 2.11202C3.34622 2.0824 3.25083 1.98701 3.22121 1.86484L2.9929 0.923287C2.90992 0.581099 2.42325 0.5811 2.34028 0.923288L2.11196 1.86484C2.08234 1.98701 1.98695 2.0824 1.86478 2.11202L0.923227 2.34034C0.581039 2.42331 0.58104 2.90998 0.923228 2.99296L1.86478 3.22127C1.98695 3.25089 2.08234 3.34628 2.11196 3.46845L2.34028 4.41Z" fill="#D9E1EA"/>
<path d="M0.666586 14.6666C0.666586 14.2985 0.965062 14 1.33325 14C1.70144 14 1.99992 14.2985 1.99992 14.6666C1.99992 15.0348 1.70144 15.3333 1.33325 15.3333C0.965062 15.3333 0.666586 15.0348 0.666586 14.6666Z" fill="#D9E1EA"/>
<path d="M7.33325 14.6666C7.33325 14.2985 7.63173 14 7.99992 14C8.36811 14 8.66659 14.2985 8.66659 14.6666C8.66659 15.0348 8.36811 15.3333 7.99992 15.3333C7.63173 15.3333 7.33325 15.0348 7.33325 14.6666Z" fill="#D9E1EA"/>
<path d="M13.3333 7.99998C13.3333 7.63179 13.6317 7.33331 13.9999 7.33331C14.3681 7.33331 14.6666 7.63179 14.6666 7.99998C14.6666 8.36817 14.3681 8.66665 13.9999 8.66665C13.6317 8.66665 13.3333 8.36817 13.3333 7.99998Z" fill="#D9E1EA"/>
</svg>
