<svg width="16" height="16" viewBox="0 0 16 16" fill="none" xmlns="http://www.w3.org/2000/svg">
<path fill-rule="evenodd" clip-rule="evenodd" d="M3 4.43359C3 4.12293 3.24873 3.87109 3.55556 3.87109H7.44444C7.75127 3.87109 8 4.12293 8 4.43359C8 4.74425 7.75127 4.99609 7.44444 4.99609H6.05556V11.7461H7.44444C7.75127 11.7461 8 11.9979 8 12.3086C8 12.6193 7.75127 12.8711 7.44444 12.8711H3.55556C3.24873 12.8711 3 12.6193 3 12.3086C3 11.9979 3.24873 11.7461 3.55556 11.7461H4.94444V4.99609H3.55556C3.24873 4.99609 3 4.74425 3 4.43359Z" fill="#D9E1EA"/>
<path d="M9.85966 6.40981C9.95185 6.02485 10.4926 6.02485 10.5848 6.40981L10.8385 7.46906C10.8714 7.6065 10.9774 7.71382 11.1131 7.74714L12.1593 8.00399C12.5395 8.09734 12.5395 8.64484 12.1593 8.73819L11.1131 8.99504C10.9774 9.02837 10.8714 9.13568 10.8385 9.27313L10.5848 10.3324C10.4926 10.7173 9.95185 10.7173 9.85966 10.3324L9.60598 9.27313C9.57306 9.13568 9.46707 9.02837 9.33133 8.99504L8.28516 8.73819C7.90495 8.64484 7.90495 8.09734 8.28516 8.00399L9.33133 7.74714C9.46707 7.71382 9.57306 7.6065 9.60598 7.46906L9.85966 6.40981Z" fill="#D9E1EA"/>
<path fill-rule="evenodd" clip-rule="evenodd" d="M10.2222 6.81941L10.0411 7.57588C9.96864 7.87825 9.73547 8.11434 9.43683 8.18766L8.6897 8.37109L9.43683 8.55453C9.73547 8.62785 9.96864 8.86393 10.0411 9.16631L10.2222 9.92277L10.4034 9.16631C10.4758 8.86393 10.709 8.62785 11.0076 8.55453L11.7547 8.37109L11.0076 8.18766C10.709 8.11434 10.4758 7.87825 10.4034 7.57588L10.2222 6.81941ZM10.5848 6.40981C10.4926 6.02485 9.95185 6.02485 9.85966 6.40981L9.60598 7.46906C9.57306 7.6065 9.46707 7.71382 9.33133 7.74714L8.28516 8.00399C7.90495 8.09734 7.90495 8.64484 8.28516 8.73819L9.33133 8.99504C9.46707 9.02837 9.57306 9.13568 9.60598 9.27313L9.85966 10.3324C9.95185 10.7173 10.4926 10.7173 10.5848 10.3324L10.8385 9.27313C10.8714 9.13568 10.9774 9.02837 11.1131 8.99504L12.1593 8.73819C12.5395 8.64484 12.5395 8.09734 12.1593 8.00399L11.1131 7.74714C10.9774 7.71382 10.8714 7.6065 10.8385 7.46906L10.5848 6.40981Z" fill="#D9E1EA"/>
<path d="M13 4.43359C13 4.74425 12.7513 4.99609 12.4444 4.99609C12.1376 4.99609 11.8889 4.74425 11.8889 4.43359C11.8889 4.12293 12.1376 3.87109 12.4444 3.87109C12.7513 3.87109 13 4.12293 13 4.43359Z" fill="#D9E1EA"/>
<path d="M13 12.3086C13 12.6193 12.7513 12.8711 12.4444 12.8711C12.1376 12.8711 11.8889 12.6193 11.8889 12.3086C11.8889 11.9979 12.1376 11.7461 12.4444 11.7461C12.7513 11.7461 13 11.9979 13 12.3086Z" fill="#D9E1EA"/>
</svg>
